solid OBJECT
  facet normal 0 0 1
    outer loop
      vertex -97.483833312988281 -2.4155745506286621 0
      vertex -75.719894409179688 -21.57316780090332 0
      vertex -70.516387939453125 -2.4155745506286621 0
    endloop
  endfacet
  facet normal 0 0 1
    outer loop
      vertex 68.574981689453125 27.277141571044922 0
      vertex 93.358932495117188 9.9982395172119141 0
      vertex 90.483749389648438 21.159944534301758 0
    endloop
  endfacet
  facet normal 0 -0 1
    outer loop
      vertex -35.203655242919922 -27.85179328918457 0
      vertex -71.246368408203125 -19.156656265258789 0
      vertex -62.709663391113281 -43.073585510253906 0
    endloop
  endfacet
  facet normal 0 0 1
    outer loop
      vertex -43.3433837890625 -2.4155745506286621 0
      vertex 31.551713943481445 -23.964929580688477 0
      vertex 30.069330215454102 -2.4155745506286621 0
    endloop
  endfacet
  facet normal -0 0 1
    outer loop
      vertex -73.788055419921875 -2.4155745506286621 0
      vertex -75.481842041015625 -22.194208145141602 0
      vertex -43.3433837890625 -2.4155745506286621 0
    endloop
  endfacet
  facet normal 0 -0 1
    outer loop
      vertex 64.891006469726562 -20.101533889770508 0
      vertex -29.644685745239258 -32.207008361816406 0
      vertex 56.948001861572266 -40.646034240722656 0
    endloop
  endfacet
  facet normal 0 -0 1
    outer loop
      vertex 85.661087036132812 -29.384042739868164 0
      vertex 64.891006469726562 -20.101533889770508 0
      vertex 62.925914764404297 -42.041366577148438 0
    endloop
  endfacet
  facet normal 0 -0 1
    outer loop
      vertex 30.274835586547852 -25.911767959594727 0
      vertex -44.06292724609375 -2.4155745506286621 0
      vertex -33.467990875244141 -34.899833679199219 0
    endloop
  endfacet
  facet normal 0 -0 1
    outer loop
      vertex 76.94110107421875 -2.4155745506286621 0
      vertex 70.69537353515625 -29.520059585571289 0
      vertex 98.189506530761719 -16.998392105102539 0
    endloop
  endfacet
  facet normal -0 -0 1
    outer loop
      vertex -38.722251892089844 -35.879981994628906 0
      vertex -45.65869140625 -2.4155745506286621 0
      vertex -74.620193481445312 -26.616708755493164 0
    endloop
  endfacet
  facet normal 0 -0 1
    outer loop
      vertex 51.096416473388672 -40.347076416015625 0
      vertex -33.251792907714844 -18.895524978637695 0
      vertex -52.191448211669922 -43.984359741210938 0
    endloop
  endfacet
  facet normal 0 0 1
    outer loop
      vertex 34.309291839599609 -2.4155745506286621 0
      vertex 36.092998504638672 -23.943811416625977 0
      vertex 80.533973693847656 -2.4155745506286621 0
    endloop
  endfacet
  facet normal 0 -0 1
    outer loop
      vertex -57.687461853027344 -32.775718688964844 0
      vertex -76.539054870605469 -15.762247085571289 0
      vertex -74.446281433105469 -33.931221008300781 0
    endloop
  endfacet
  facet normal -0 -0 1
    outer loop
      vertex 66.481094360351562 -36.320777893066406 0
      vertex 33.586360931396484 -19.867731094360352 0
      vertex -28.805746078491211 -35.757102966308594 0
    endloop
  endfacet
  facet normal 0 -0 1
    outer loop
      vertex 79.354270935058594 -2.4155745506286621 0
      vertex 36.103595733642578 -26.25267219543457 0
      vertex 72.750968933105469 -29.432489395141602 0
    endloop
  endfacet
  facet normal 0 -0 1
    outer loop
      vertex 93.358932495117188 -14.829385757446289 0
      vertex 68.574981689453125 -32.108291625976562 0
      vertex 90.483749389648438 -25.991098403930664 0
    endloop
  endfacet
  facet normal 0 0 1
    outer loop
      vertex -82.923652648925781 -25.036584854125977 0
      vertex -66.843864440917969 -16.317331314086914 0
      vertex -92.287483215332031 -2.4155745506286621 0
    endloop
  endfacet
  facet normal -0 -0 1
    outer loop
      vertex -75.719894409179688 16.74201774597168 0
      vertex -97.483833312988281 -2.4155745506286621 0
      vertex -70.516387939453125 -2.4155745506286621 0
    endloop
  endfacet
  facet normal 0 -0 1
    outer loop
      vertex -66.843864440917969 11.486181259155273 0
      vertex -82.923652648925781 20.205434799194336 0
      vertex -92.287483215332031 -2.4155745506286621 0
    endloop
  endfacet
  facet normal -0 0 1
    outer loop
      vertex -71.246368408203125 14.32551097869873 0
      vertex -35.203655242919922 23.02064323425293 0
      vertex -62.709663391113281 38.242439270019531 0
    endloop
  endfacet
  facet normal 0 -0 1
    outer loop
      vertex 31.551713943481445 19.133783340454102 0
      vertex -43.3433837890625 -2.4155745506286621 0
      vertex 30.069330215454102 -2.4155745506286621 0
    endloop
  endfacet
  facet normal 0 0 1
    outer loop
      vertex -75.481842041015625 17.363058090209961 0
      vertex -73.788055419921875 -2.4155745506286621 0
      vertex -43.3433837890625 -2.4155745506286621 0
    endloop
  endfacet
  facet normal 0 0 1
    outer loop
      vertex -29.644685745239258 27.3758544921875 0
      vertex 64.891006469726562 15.270384788513184 0
      vertex 56.948001861572266 35.814891815185547 0
    endloop
  endfacet
  facet normal 0 0 1
    outer loop
      vertex 64.891006469726562 15.270384788513184 0
      vertex 85.661087036132812 24.552896499633789 0
      vertex 62.925914764404297 37.210224151611328 0
    endloop
  endfacet
  facet normal -0 0 1
    outer loop
      vertex -44.06292724609375 -2.4155745506286621 0
      vertex 30.274835586547852 21.080617904663086 0
      vertex -33.467990875244141 30.068679809570312 0
    endloop
  endfacet
  facet normal 0 0 1
    outer loop
      vertex 70.69537353515625 24.688909530639648 0
      vertex 76.94110107421875 -2.4155745506286621 0
      vertex 98.189506530761719 12.167238235473633 0
    endloop
  endfacet
  facet normal 0 -0 1
    outer loop
      vertex -45.65869140625 -2.4155745506286621 0
      vertex -38.722251892089844 31.048828125 0
      vertex -74.620193481445312 21.785562515258789 0
    endloop
  endfacet
  facet normal 0 0 1
    outer loop
      vertex -33.251792907714844 14.064374923706055 0
      vertex 51.096416473388672 35.515926361083984 0
      vertex -52.191448211669922 39.153213500976562 0
    endloop
  endfacet
  facet normal -0 -0 1
    outer loop
      vertex 36.092998504638672 19.11265754699707 0
      vertex 34.309291839599609 -2.4155745506286621 0
      vertex 80.533973693847656 -2.4155745506286621 0
    endloop
  endfacet
  facet normal -0 0 1
    outer loop
      vertex -76.539054870605469 10.931097030639648 0
      vertex -57.687461853027344 27.944568634033203 0
      vertex -74.446281433105469 29.100067138671875 0
    endloop
  endfacet
  facet normal 0 0 1
    outer loop
      vertex 33.586360931396484 15.036581993103027 0
      vertex 66.481094360351562 31.489631652832031 0
      vertex -28.805746078491211 30.925949096679688 0
    endloop
  endfacet
  facet normal -0 -0 1
    outer loop
      vertex 36.103595733642578 21.42152214050293 0
      vertex 79.354270935058594 -2.4155745506286621 0
      vertex 72.750968933105469 24.601339340209961 0
    endloop
  endfacet
  facet normal 0 0 1
    outer loop
      vertex 74.969062805175781 -2.4155745506286621 0
      vertex 98.065177917480469 -13.847452163696289 0
      vertex 98.065177917480469 9.0163021087646484 0
    endloop
  endfacet
endsolid OBJECT
