<?xml version="1.0" encoding="UTF-8" standalone="no"?>
<!-- Created with Inkscape (http://www.inkscape.org/) -->

<svg
   xmlns:dc="http://purl.org/dc/elements/1.1/"
   xmlns:cc="http://creativecommons.org/ns#"
   xmlns:rdf="http://www.w3.org/1999/02/22-rdf-syntax-ns#"
   xmlns:svg="http://www.w3.org/2000/svg"
   xmlns="http://www.w3.org/2000/svg"
   xmlns:sodipodi="http://sodipodi.sourceforge.net/DTD/sodipodi-0.dtd"
   xmlns:inkscape="http://www.inkscape.org/namespaces/inkscape"
   width="171"
   height="126"
   id="svg2"
   version="1.1"
   inkscape:version="0.48.3.1 r9886"
   sodipodi:docname="gray.svg">
  <defs
     id="defs4" />
  <sodipodi:namedview
     id="base"
     pagecolor="#ffffff"
     bordercolor="#666666"
     borderopacity="1.0"
     inkscape:pageopacity="0.0"
     inkscape:pageshadow="2"
     inkscape:zoom="2.0596713"
     inkscape:cx="62.699321"
     inkscape:cy="92.963058"
     inkscape:document-units="in"
     inkscape:current-layer="layer1"
     showgrid="false"
     units="in"
     width="3in"
     inkscape:window-width="1134"
     inkscape:window-height="666"
     inkscape:window-x="0"
     inkscape:window-y="0"
     inkscape:window-maximized="0" />
  <metadata
     id="metadata7">
    <rdf:RDF>
      <cc:Work
         rdf:about="">
        <dc:format>image/svg+xml</dc:format>
        <dc:type
           rdf:resource="http://purl.org/dc/dcmitype/StillImage" />
        <dc:title />
      </cc:Work>
    </rdf:RDF>
  </metadata>
  <g
     inkscape:label="Layer 1"
     inkscape:groupmode="layer"
     id="layer1"
     transform="translate(0,-926.35975)">
    <rect
       style="fill:none;stroke:#000000;stroke-opacity:1"
       id="rect2985-6"
       width="156.17914"
       height="108.5034"
       x="8.5051422"
       y="936.7793" />
    <g
       transform="translate(-75.227772,767.06447)"
       style="font-size:40px;font-style:normal;font-weight:normal;line-height:125%;letter-spacing:0px;word-spacing:0px;fill:none;stroke:#c8c8c8;stroke-opacity:1;font-family:Sans"
       id="text3755-4">
      <path
         inkscape:connector-curvature="0"
         d="m 109.70928,187.23021 7.51953,0 0,23.47656 13.20313,0 0,5.6836 -20.72266,0 0,-29.16016"
         style="font-weight:bold;fill:none;stroke:#c8c8c8;stroke-opacity:1;-inkscape-font-specification:Sans Bold"
         id="path3760-3" />
      <path
         inkscape:connector-curvature="0"
         d="m 134.86553,194.51537 6.99219,0 0,21.875 -6.99219,0 0,-21.875 m 0,-8.51563 6.99219,0 0,5.70313 -6.99219,0 0,-5.70313"
         style="font-weight:bold;fill:none;stroke:#c8c8c8;stroke-opacity:1;-inkscape-font-specification:Sans Bold"
         id="path3762-7" />
      <path
         inkscape:connector-curvature="0"
         d="m 163.49834,212.67943 c -0.96355,1.27604 -2.02475,2.21354 -3.18359,2.8125 -1.15887,0.59896 -2.50001,0.89844 -4.02344,0.89844 -2.66928,0 -4.87631,-1.04818 -6.62109,-3.14454 -1.74479,-2.10937 -2.61719,-4.79165 -2.61719,-8.04687 0,-3.26822 0.8724,-5.94399 2.61719,-8.02734 1.74478,-2.09634 3.95181,-3.14451 6.62109,-3.14454 1.52343,3e-5 2.86457,0.29951 4.02344,0.89844 1.15884,0.59898 2.22004,1.54299 3.18359,2.83203 l 0,-3.24218 7.03125,0 0,19.66796 c -2e-5,3.51563 -1.1133,6.19792 -3.33984,8.04688 -2.21356,1.86197 -5.4297,2.79296 -9.64844,2.79297 -1.3672,-1e-5 -2.68881,-0.10418 -3.96484,-0.3125 -1.27605,-0.20834 -2.5586,-0.52735 -3.84766,-0.95703 l 0,-5.44922 c 1.22396,0.70312 2.42187,1.22395 3.59375,1.5625 1.17187,0.35156 2.35025,0.52734 3.53516,0.52734 2.29165,0 3.97134,-0.5013 5.03906,-1.5039 1.06769,-1.00261 1.60155,-2.57162 1.60156,-4.70704 l 0,-1.5039 m -4.60937,-13.61328 c -1.44533,1e-5 -2.57163,0.53387 -3.37891,1.60156 -0.8073,1.06772 -1.21094,2.57814 -1.21093,4.53125 -1e-5,2.00522 0.39061,3.52865 1.17187,4.57031 0.78124,1.02865 1.92056,1.54298 3.41797,1.54297 1.45832,1e-5 2.59113,-0.53385 3.39844,-1.60156 0.80727,-1.0677 1.21092,-2.57161 1.21093,-4.51172 -1e-5,-1.95311 -0.40366,-3.46353 -1.21093,-4.53125 -0.80731,-1.06769 -1.94012,-1.60155 -3.39844,-1.60156"
         style="font-weight:bold;fill:none;stroke:#c8c8c8;stroke-opacity:1;-inkscape-font-specification:Sans Bold"
         id="path3764-3" />
      <path
         inkscape:connector-curvature="0"
         d="m 199.27959,203.07005 0,13.32032 -7.03125,0 0,-2.16797 0,-7.98828 c -1e-5,-1.91405 -0.0456,-3.22916 -0.13671,-3.94532 -0.0781,-0.71613 -0.22138,-1.24347 -0.42969,-1.58203 -0.27346,-0.45571 -0.64455,-0.80727 -1.11328,-1.05469 -0.46877,-0.2604 -1.00262,-0.3906 -1.60157,-0.39062 -1.45834,2e-5 -2.60417,0.56642 -3.4375,1.69922 -0.83334,1.1198 -1.25001,2.67579 -1.25,4.66797 l 0,10.76172 -6.99218,0 0,-30.39063 6.99218,0 0,11.71875 c 1.05468,-1.27602 2.17447,-2.21352 3.35938,-2.8125 1.18488,-0.61196 2.49347,-0.91795 3.92578,-0.91797 2.52602,2e-5 4.44008,0.77476 5.74219,2.32422 1.31508,1.5495 1.97263,3.8021 1.97265,6.75781"
         style="font-weight:bold;fill:none;stroke:#c8c8c8;stroke-opacity:1;-inkscape-font-specification:Sans Bold"
         id="path3766-6" />
      <path
         inkscape:connector-curvature="0"
         d="m 213.43975,188.30443 0,6.21094 7.20703,0 0,5 -7.20703,0 0,9.27734 c -1e-5,1.01563 0.20181,1.70573 0.60547,2.07031 0.40363,0.35157 1.20441,0.52735 2.40234,0.52735 l 3.59375,0 0,5 -5.99609,0 c -2.76043,0 -4.72006,-0.57292 -5.87891,-1.71875 -1.14583,-1.15886 -1.71875,-3.11849 -1.71875,-5.87891 l 0,-9.27734 -3.47656,0 0,-5 3.47656,0 0,-6.21094 6.99219,0"
         style="font-weight:bold;fill:none;stroke:#c8c8c8;stroke-opacity:1;-inkscape-font-specification:Sans Bold"
         id="path3768-0" />
    </g>
    <g
       transform="translate(-90.087896,1007.7743)"
       style="font-size:40px;font-style:normal;font-weight:normal;line-height:125%;letter-spacing:0px;word-spacing:0px;fill:none;stroke:#646464;stroke-opacity:1;font-family:Sans"
       id="text3890">
      <path
         d="m 134.99757,0.67332649 0,17.79296851 2.69531,0 c 3.0729,6e-6 5.41665,-0.761712 7.03125,-2.285156 1.62758,-1.523428 2.44138,-3.736967 2.4414,-6.640625 -2e-5,-2.8906075 -0.80731,-5.0911261 -2.42187,-6.6015625 -1.6146,-1.510394 -3.96486,-2.26560153 -7.05078,-2.26562501 l -2.69531,0 m -7.51954,-5.68359379 7.92969,0 c 4.42707,2.92e-5 7.72134,0.3190393 9.88281,0.9570313 2.17446,0.6250276 4.03644,1.6927348 5.58594,3.20312499 1.36716,1.31512785 2.38279,2.83205341 3.04688,4.55078121 0.66403,1.7187688 0.99606,3.6653814 0.99609,5.8398438 -3e-5,2.200533 -0.33206,4.166677 -0.99609,5.898437 -0.66409,1.718757 -1.67972,3.235683 -3.04688,4.550782 -1.56252,1.510419 -3.43752,2.584637 -5.625,3.222656 -2.18752,0.625 -5.46876,0.9375 -9.84375,0.9375 l -7.92969,0 0,-29.1601563"
         style="font-weight:bold;fill:none;stroke:#646464;stroke-opacity:1;-inkscape-font-specification:Sans Bold"
         id="path3895"
         inkscape:connector-curvature="0" />
      <path
         d="m 170.17335,14.306139 c -1.45835,10e-6 -2.55861,0.247405 -3.30078,0.742187 -0.72918,0.494801 -1.09376,1.223967 -1.09375,2.1875 -1e-5,0.885423 0.29296,1.582037 0.8789,2.089844 0.59895,0.494796 1.42577,0.742192 2.48047,0.742188 1.31509,4e-6 2.42186,-0.468746 3.32031,-1.40625 0.89842,-0.950515 1.34764,-2.135409 1.34766,-3.554688 l 0,-0.800781 -3.63281,0 m 10.68359,-2.636719 0,12.480469 -7.05078,0 0,-3.242188 c -0.93752,1.328127 -1.9922,2.298179 -3.16406,2.910157 -1.17189,0.598958 -2.59767,0.898437 -4.27735,0.898437 -2.26563,0 -4.10807,-0.657552 -5.52734,-1.972656 -1.40625,-1.328122 -2.10938,-3.046871 -2.10938,-5.15625 0,-2.565095 0.87891,-4.446604 2.63672,-5.644531 1.77083,-1.197904 4.54427,-1.796861 8.32032,-1.796875 l 4.12109,0 0,-0.5468753 c -2e-5,-1.1067551 -0.43621,-1.914046 -1.30859,-2.421875 -0.87241,-0.5208158 -2.23309,-0.7812322 -4.08204,-0.78125 -1.4974,1.78e-5 -2.89063,0.1497572 -4.17968,0.4492188 -1.28907,0.2994962 -2.48699,0.7487145 -3.59375,1.3476562 l 0,-5.3320312 c 1.49739,-0.3645617 3.00129,-0.6379989 4.51172,-0.8203125 1.5104,-0.1952902 3.02082,-0.2929464 4.53125,-0.2929688 3.94529,2.24e-5 6.79034,0.7812717 8.53515,2.34375 1.75779,1.5494977 2.6367,4.0755369 2.63672,7.5781248"
         style="font-weight:bold;fill:none;stroke:#646464;stroke-opacity:1;-inkscape-font-specification:Sans Bold"
         id="path3897"
         inkscape:connector-curvature="0" />
      <path
         d="m 203.64991,8.2319202 c -0.612,-0.2864421 -1.22398,-0.4947752 -1.83594,-0.625 -0.59897,-0.1432124 -1.20444,-0.2148269 -1.8164,-0.2148437 -1.79689,1.68e-5 -3.18361,0.5794433 -4.16016,1.7382812 -0.96355,1.1458473 -1.44532,2.7929813 -1.44531,4.9414063 l 0,10.078125 -6.99219,0 0,-21.875 6.99219,0 0,3.59375 c 0.89842,-1.432272 1.92707,-2.4739376 3.08593,-3.125 1.17187,-0.6640404 2.5716,-0.9960714 4.19922,-0.9960938 0.23436,2.24e-5 0.48827,0.013043 0.76172,0.039063 0.27342,0.013043 0.67056,0.052106 1.19141,0.1171875 l 0.0195,6.328125"
         style="font-weight:bold;fill:none;stroke:#646464;stroke-opacity:1;-inkscape-font-specification:Sans Bold"
         id="path3899"
         inkscape:connector-curvature="0" />
      <path
         d="m 207.16553,-6.240736 6.99219,0 0,16.542969 8.04688,-8.027344 8.125,0 -10.6836,10.039062 11.52344,11.835938 -8.47656,0 -8.53516,-9.121094 0,9.121094 -6.99219,0 0,-30.390625"
         style="font-weight:bold;fill:none;stroke:#646464;stroke-opacity:1;-inkscape-font-specification:Sans Bold"
         id="path3901"
         inkscape:connector-curvature="0" />
    </g>
  </g>
</svg>
